<svg xmlns="http://www.w3.org/2000/svg" viewBox="0 0 720 430" font-family="-apple-system,Segoe UI,Roboto,Helvetica,Arial,sans-serif">
  <rect width="720" height="430" rx="14" fill="#fbfdff"/>
  <rect x="1" y="1" width="718" height="428" rx="14" fill="none" stroke="#e2e8f0"/>
  <text x="360" y="32" text-anchor="middle" font-size="19" font-weight="700" fill="#1b2a4a">La courbe sRGB : pourquoi 50 % stocké n'est pas 50 % de lumière</text>

  <line x1="95" y1="330" x2="635" y2="330" stroke="#94a3b8" stroke-width="1.5"/>
  <line x1="95" y1="330" x2="95" y2="80" stroke="#94a3b8" stroke-width="1.5"/>
  <text x="87" y="335" text-anchor="end" font-size="11" fill="#64748b">0</text>
  <text x="87" y="85" text-anchor="end" font-size="11" fill="#64748b">1</text>
  <text x="635" y="348" text-anchor="middle" font-size="11" fill="#64748b">1</text>
  <text x="365.0" y="348" text-anchor="middle" font-size="11" fill="#64748b">0,5</text>
  <text x="360" y="370" text-anchor="middle" font-size="12.5" fill="#1b2a4a">valeur stockée dans la texture (pensée pour l'œil)</text>
  <text x="34" y="205.0" text-anchor="middle" font-size="12.5" fill="#1b2a4a" transform="rotate(-90 34 205)">lumière physique réelle</text>

  <polyline points="95.0,330.0 635.0,80.0" fill="none" stroke="#cbd5e1" stroke-width="1.8" stroke-dasharray="6 5"/>
  <text x="511" y="110" font-size="11.5" fill="#94a3b8" transform="rotate(-25 511 110)">valeur lue telle quelle (faux)</text>

  <polyline points="95.0,330.0 101.8,329.8 108.5,329.5 115.2,329.3 122.0,329.0 128.8,328.7 135.5,328.4 142.2,328.0 149.0,327.5 155.8,327.0 162.5,326.4 169.2,325.8 176.0,325.1 182.8,324.4 189.5,323.5 196.2,322.7 203.0,321.7 209.8,320.7 216.5,319.6 223.2,318.5 230.0,317.3 236.8,316.0 243.5,314.6 250.2,313.2 257.0,311.7 263.8,310.1 270.5,308.4 277.2,306.7 284.0,304.9 290.8,303.0 297.5,301.0 304.2,298.9 311.0,296.8 317.8,294.6 324.5,292.2 331.2,289.8 338.0,287.3 344.8,284.8 351.5,282.1 358.2,279.3 365.0,276.5 371.8,273.6 378.5,270.5 385.2,267.4 392.0,264.2 398.8,260.9 405.5,257.5 412.2,254.0 419.0,250.4 425.8,246.7 432.5,242.9 439.2,239.0 446.0,235.0 452.8,230.9 459.5,226.7 466.2,222.4 473.0,218.0 479.8,213.5 486.5,208.9 493.2,204.2 500.0,199.4 506.8,194.4 513.5,189.4 520.2,184.3 527.0,179.0 533.8,173.7 540.5,168.2 547.2,162.7 554.0,157.0 560.8,151.2 567.5,145.3 574.2,139.3 581.0,133.1 587.8,126.9 594.5,120.6 601.2,114.1 608.0,107.5 614.8,100.8 621.5,94.0 628.2,87.1 635.0,80.0" fill="none" stroke="#ea580c" stroke-width="3.5"/>

  <line x1="365.0" y1="330" x2="365.0" y2="276.5" stroke="#0ea5e9" stroke-width="1.4" stroke-dasharray="3 3"/>
  <line x1="95" y1="276.5" x2="365.0" y2="276.5" stroke="#0ea5e9" stroke-width="1.4" stroke-dasharray="3 3"/>
  <circle cx="365.0" cy="276.5" r="5" fill="#0284c7"/>
  <text x="375" y="268" font-size="12" fill="#0284c7" font-weight="700">0,5 stocké = seulement 21 % de lumière</text>

  <circle r="7" fill="#f59e0b" stroke="#b45309" stroke-width="1.4">
    <animate attributeName="cx" values="95.0;140.0;185.0;230.0;275.0;320.0;365.0;410.0;455.0;500.0;545.0;590.0;635.0;95.0" keyTimes="0.000;0.077;0.154;0.231;0.308;0.385;0.462;0.538;0.615;0.692;0.769;0.846;0.923;1.000" dur="6s" repeatCount="indefinite"/>
    <animate attributeName="cy" values="330.0;328.1;324.1;317.3;307.3;293.8;276.5;255.1;229.5;199.4;164.5;124.8;80.0;330.0" keyTimes="0.000;0.077;0.154;0.231;0.308;0.385;0.462;0.538;0.615;0.692;0.769;0.846;0.923;1.000" dur="6s" repeatCount="indefinite"/>
  </circle>

  <text x="360" y="400" text-anchor="middle" font-size="12.5" fill="#1b2a4a">La courbe orange plonge sous la diagonale : une valeur moyenne pèse bien moins de lumière qu'on ne croit.</text>
  <text x="360" y="418" text-anchor="middle" font-size="12.5" fill="#64748b">C'est pourquoi tout calcul d'éclairage se fait en lumière réelle (espace linéaire), pas sur la valeur stockée.</text>
</svg>
