<svg xmlns="http://www.w3.org/2000/svg" viewBox="0 0 720 462" font-family="-apple-system,Segoe UI,Roboto,Helvetica,Arial,sans-serif">
  <rect width="720" height="462" rx="14" fill="#fbfdff"/>
  <rect x="1" y="1" width="718" height="460" rx="14" fill="none" stroke="#e2e8f0"/>
  <text x="360" y="32" text-anchor="middle" font-size="19" font-weight="700" fill="#1b2a4a">A* : le plus court chemin sans fouiller toute la carte</text>

  <rect x="70" y="76" width="52" height="52" fill="#ffffff" stroke="#cbd5e1" stroke-width="1"/><rect x="122" y="76" width="52" height="52" fill="#ffffff" stroke="#cbd5e1" stroke-width="1"/><rect x="174" y="76" width="52" height="52" fill="#ffffff" stroke="#cbd5e1" stroke-width="1"/><rect x="226" y="76" width="52" height="52" fill="#ffffff" stroke="#cbd5e1" stroke-width="1"/><rect x="278" y="76" width="52" height="52" fill="#ffffff" stroke="#cbd5e1" stroke-width="1"/><rect x="330" y="76" width="52" height="52" fill="#ffffff" stroke="#cbd5e1" stroke-width="1"/><rect x="382" y="76" width="52" height="52" fill="#ffffff" stroke="#cbd5e1" stroke-width="1"/><rect x="434" y="76" width="52" height="52" fill="#ffffff" stroke="#cbd5e1" stroke-width="1"/><rect x="486" y="76" width="52" height="52" fill="#ffffff" stroke="#cbd5e1" stroke-width="1"/><rect x="70" y="128" width="52" height="52" fill="#ffffff" stroke="#cbd5e1" stroke-width="1"/><rect x="122" y="128" width="52" height="52" fill="#ffffff" stroke="#cbd5e1" stroke-width="1"/><rect x="174" y="128" width="52" height="52" fill="#ffffff" stroke="#cbd5e1" stroke-width="1"/><rect x="226" y="128" width="52" height="52" fill="#ffffff" stroke="#cbd5e1" stroke-width="1"/><rect x="278" y="128" width="52" height="52" fill="#ffffff" stroke="#cbd5e1" stroke-width="1"/><rect x="330" y="128" width="52" height="52" fill="#ffffff" stroke="#cbd5e1" stroke-width="1"/><rect x="382" y="128" width="52" height="52" fill="#ffffff" stroke="#cbd5e1" stroke-width="1"/><rect x="434" y="128" width="52" height="52" fill="#ffffff" stroke="#cbd5e1" stroke-width="1"/><rect x="486" y="128" width="52" height="52" fill="#ffffff" stroke="#cbd5e1" stroke-width="1"/><rect x="70" y="180" width="52" height="52" fill="#ffffff" stroke="#cbd5e1" stroke-width="1"/><rect x="122" y="180" width="52" height="52" fill="#ffffff" stroke="#cbd5e1" stroke-width="1"/><rect x="174" y="180" width="52" height="52" fill="#ffffff" stroke="#cbd5e1" stroke-width="1"/><rect x="226" y="180" width="52" height="52" fill="#ffffff" stroke="#cbd5e1" stroke-width="1"/><rect x="278" y="180" width="52" height="52" fill="#ffffff" stroke="#cbd5e1" stroke-width="1"/><rect x="330" y="180" width="52" height="52" fill="#ffffff" stroke="#cbd5e1" stroke-width="1"/><rect x="382" y="180" width="52" height="52" fill="#ffffff" stroke="#cbd5e1" stroke-width="1"/><rect x="434" y="180" width="52" height="52" fill="#ffffff" stroke="#cbd5e1" stroke-width="1"/><rect x="486" y="180" width="52" height="52" fill="#ffffff" stroke="#cbd5e1" stroke-width="1"/><rect x="70" y="232" width="52" height="52" fill="#ffffff" stroke="#cbd5e1" stroke-width="1"/><rect x="122" y="232" width="52" height="52" fill="#ffffff" stroke="#cbd5e1" stroke-width="1"/><rect x="174" y="232" width="52" height="52" fill="#ffffff" stroke="#cbd5e1" stroke-width="1"/><rect x="226" y="232" width="52" height="52" fill="#ffffff" stroke="#cbd5e1" stroke-width="1"/><rect x="278" y="232" width="52" height="52" fill="#ffffff" stroke="#cbd5e1" stroke-width="1"/><rect x="330" y="232" width="52" height="52" fill="#ffffff" stroke="#cbd5e1" stroke-width="1"/><rect x="382" y="232" width="52" height="52" fill="#ffffff" stroke="#cbd5e1" stroke-width="1"/><rect x="434" y="232" width="52" height="52" fill="#ffffff" stroke="#cbd5e1" stroke-width="1"/><rect x="486" y="232" width="52" height="52" fill="#ffffff" stroke="#cbd5e1" stroke-width="1"/><rect x="70" y="284" width="52" height="52" fill="#ffffff" stroke="#cbd5e1" stroke-width="1"/><rect x="122" y="284" width="52" height="52" fill="#ffffff" stroke="#cbd5e1" stroke-width="1"/><rect x="174" y="284" width="52" height="52" fill="#ffffff" stroke="#cbd5e1" stroke-width="1"/><rect x="226" y="284" width="52" height="52" fill="#ffffff" stroke="#cbd5e1" stroke-width="1"/><rect x="278" y="284" width="52" height="52" fill="#ffffff" stroke="#cbd5e1" stroke-width="1"/><rect x="330" y="284" width="52" height="52" fill="#ffffff" stroke="#cbd5e1" stroke-width="1"/><rect x="382" y="284" width="52" height="52" fill="#ffffff" stroke="#cbd5e1" stroke-width="1"/><rect x="434" y="284" width="52" height="52" fill="#ffffff" stroke="#cbd5e1" stroke-width="1"/><rect x="486" y="284" width="52" height="52" fill="#ffffff" stroke="#cbd5e1" stroke-width="1"/><rect x="70" y="336" width="52" height="52" fill="#ffffff" stroke="#cbd5e1" stroke-width="1"/><rect x="122" y="336" width="52" height="52" fill="#ffffff" stroke="#cbd5e1" stroke-width="1"/><rect x="174" y="336" width="52" height="52" fill="#ffffff" stroke="#cbd5e1" stroke-width="1"/><rect x="226" y="336" width="52" height="52" fill="#ffffff" stroke="#cbd5e1" stroke-width="1"/><rect x="278" y="336" width="52" height="52" fill="#ffffff" stroke="#cbd5e1" stroke-width="1"/><rect x="330" y="336" width="52" height="52" fill="#ffffff" stroke="#cbd5e1" stroke-width="1"/><rect x="382" y="336" width="52" height="52" fill="#ffffff" stroke="#cbd5e1" stroke-width="1"/><rect x="434" y="336" width="52" height="52" fill="#ffffff" stroke="#cbd5e1" stroke-width="1"/><rect x="486" y="336" width="52" height="52" fill="#ffffff" stroke="#cbd5e1" stroke-width="1"/>
  <rect x="70" y="284" width="52" height="52" fill="#dbeafe" stroke="#cbd5e1" stroke-width="1"/><rect x="70" y="336" width="52" height="52" fill="#dbeafe" stroke="#cbd5e1" stroke-width="1"/><rect x="122" y="336" width="52" height="52" fill="#dbeafe" stroke="#cbd5e1" stroke-width="1"/><rect x="174" y="336" width="52" height="52" fill="#dbeafe" stroke="#cbd5e1" stroke-width="1"/><rect x="174" y="284" width="52" height="52" fill="#dbeafe" stroke="#cbd5e1" stroke-width="1"/><rect x="70" y="232" width="52" height="52" fill="#dbeafe" stroke="#cbd5e1" stroke-width="1"/><rect x="122" y="232" width="52" height="52" fill="#dbeafe" stroke="#cbd5e1" stroke-width="1"/><rect x="174" y="180" width="52" height="52" fill="#dbeafe" stroke="#cbd5e1" stroke-width="1"/><rect x="226" y="232" width="52" height="52" fill="#dbeafe" stroke="#cbd5e1" stroke-width="1"/><rect x="226" y="128" width="52" height="52" fill="#dbeafe" stroke="#cbd5e1" stroke-width="1"/><rect x="174" y="128" width="52" height="52" fill="#dbeafe" stroke="#cbd5e1" stroke-width="1"/><rect x="226" y="76" width="52" height="52" fill="#dbeafe" stroke="#cbd5e1" stroke-width="1"/><rect x="174" y="76" width="52" height="52" fill="#dbeafe" stroke="#cbd5e1" stroke-width="1"/><rect x="122" y="180" width="52" height="52" fill="#dbeafe" stroke="#cbd5e1" stroke-width="1"/><rect x="70" y="180" width="52" height="52" fill="#dbeafe" stroke="#cbd5e1" stroke-width="1"/><rect x="278" y="76" width="52" height="52" fill="#dbeafe" stroke="#cbd5e1" stroke-width="1"/>
  <rect x="278" y="180" width="52" height="52" fill="#334155" stroke="#1e293b" stroke-width="1"/><rect x="278" y="232" width="52" height="52" fill="#334155" stroke="#1e293b" stroke-width="1"/><rect x="278" y="284" width="52" height="52" fill="#334155" stroke="#1e293b" stroke-width="1"/><rect x="278" y="336" width="52" height="52" fill="#334155" stroke="#1e293b" stroke-width="1"/>
  <rect x="122" y="284" width="52" height="52" fill="#bbf7d0" stroke="#16a34a" stroke-width="1.5"/>
  <rect x="434" y="128" width="52" height="52" fill="#fecaca" stroke="#dc2626" stroke-width="1.5"/>
  <text x="148" y="315" text-anchor="middle" font-size="13" font-weight="700" fill="#15803d">D</text>
  <text x="460" y="159" text-anchor="middle" font-size="13" font-weight="700" fill="#b91c1c">B</text>

  <polyline points="148,310 200,258 252,206 304,154 356,154 408,154 460,154" fill="none" stroke="#ea580c" stroke-width="4" stroke-linejoin="round" stroke-linecap="round" opacity="0.9"/>
  <circle r="8" fill="#f59e0b" stroke="#b45309" stroke-width="1.5">
    <animate attributeName="cx" values="148;200;252;304;356;408;460;148" keyTimes="0.000;0.143;0.286;0.429;0.571;0.714;0.857;1.000" dur="5s" repeatCount="indefinite"/>
    <animate attributeName="cy" values="310;258;206;154;154;154;154;310" keyTimes="0.000;0.143;0.286;0.429;0.571;0.714;0.857;1.000" dur="5s" repeatCount="indefinite"/>
  </circle>

  <line x1="252" y1="206" x2="592" y2="150" stroke="#0284c7" stroke-width="1.3" stroke-dasharray="3 3"/>
  <rect x="560" y="120" width="150" height="74" rx="8" fill="#eff6ff" stroke="#0284c7" stroke-width="1.3"/>
  <text x="635" y="140" text-anchor="middle" font-size="12" font-weight="700" fill="#0c4a6e">Pour cette case</text>
  <text x="572" y="160" font-size="11.5" fill="#0c4a6e">g = 5 (déjà fait)</text>
  <text x="572" y="176" font-size="11.5" fill="#0c4a6e">h = 4 (deviné)</text>
  <text x="572" y="192" font-size="12" font-weight="700" fill="#ea580c">f = g + h = 9</text>

  <rect x="70" y="414" width="15" height="15" rx="3" fill="#bbf7d0" stroke="#16a34a"/><text x="91" y="426" font-size="12" fill="#1b2a4a">départ (D)</text>
  <rect x="190" y="414" width="15" height="15" rx="3" fill="#fecaca" stroke="#dc2626"/><text x="211" y="426" font-size="12" fill="#1b2a4a">but (B)</text>
  <rect x="290" y="414" width="15" height="15" rx="3" fill="#334155" stroke="#475569"/><text x="311" y="426" font-size="12" fill="#1b2a4a">mur</text>
  <rect x="370" y="414" width="15" height="15" rx="3" fill="#dbeafe" stroke="#475569"/><text x="391" y="426" font-size="12" fill="#1b2a4a">cases examinées</text>
  <rect x="540" y="414" width="15" height="15" rx="3" fill="#ea580c" stroke="#b45309"/><text x="561" y="426" font-size="12" fill="#1b2a4a">chemin trouvé</text>

  <text x="360" y="450" text-anchor="middle" font-size="12.5" fill="#64748b">A* sert toujours la case au plus petit f : il fonce vers le but au lieu d'explorer toute la grille.</text>
</svg>
